<?xml version="1.0" encoding="UTF-8"?>
<svg width="144.5mm" height="144.5mm" version="1.1" viewBox="0 0 511.99998 511.99998" xmlns="http://www.w3.org/2000/svg">
 <g transform="translate(-132.39 -111.21)">
  <rect x="132.39" y="111.21" width="512" height="512" fill="#ffc020"/>
  <path transform="translate(132.39 111.21)" d="m251 17c-72.902 0-128.65 36.098-132 132-3.3461 95.902 14.952 142.05-89.314 257-11.393 12.56-21.249 25.437-29.686 38.459v67.541h512v-76.58c-7.0392-9.8646-14.908-19.691-23.686-29.42-108.89-120.68-104.82-160.8-105.31-257-0.49237-96.195-59.098-132-132-132z" fill="#212121"/>
  <circle cx="430.08" cy="270.97" r="57.154" fill="#fff"/>
  <path d="m388 392.36a191.62 191.62 0 0 0 -191.62 191.62 191.62 191.62 0 0 0 1.6449 23.145h380.03a191.62 191.62 0 0 0 1.5627 -23.145 191.62 191.62 0 0 0 -191.62 -191.62z" fill="#fff"/>
  <circle cx="338.87" cy="270.97" r="56.154" fill="#fff"/>
  <path transform="translate(132.39 111.21)" d="m258.48 192.77c-58.698 0-118.05 6.2474-140.15 18.742-0.19143 11.497-0.66167 22.558-1.8652 33.525 26.791 41.072 117.27 98.258 139.14 97.373 21.265-0.86011 102.6-53.914 133.76-94.17-3.0537-13.609-4.5999-27.233-5.4004-41.734-25.515-9.1536-75.244-13.736-125.48-13.736z" fill="#212121"/>
  <path d="m290.39 344.98c-7.6782 27.466 79.54 92.46 97.497 91.644 17.957-0.81545 100.04-64.178 97.497-91.644-2.5477-27.466-187.32-27.466-194.99 0z" fill="#ffc020"/>
  <path d="m389.81 324.38c-46.158 0-92.917 6.4923-98.997 19.477 8.8346 30.561 80.931 83.001 97.073 82.268 16.466-0.74777 86.849-54.086 96.456-84.115-7.2621-11.752-50.619-17.629-94.532-17.629z" fill="#ff3e03"/>
  <path d="m290.39 344.98c-7.6782 27.466 79.54 60.46 97.497 59.644 17.957-0.81545 100.04-32.178 97.497-59.644-2.5477-27.466-187.32-27.466-194.99 0z" fill="#ffc020"/>
  <path d="m438.6 281.91s-5.8991-18.117-16.214-17.878c-10.315 0.23828-14.652 14.666-14.652 14.666" fill="none" stroke="#212121" stroke-linecap="round" stroke-linejoin="round" stroke-width="20"/>
  <circle cx="345.58" cy="276.02" r="11.314" fill="#212121" stroke="#212121" stroke-linecap="round" stroke-linejoin="round" stroke-width="20"/>
 </g>
</svg>
